<?xml version="1.0"?>
<!--Icons from directory ""-->
<svg xmlns="http://www.w3.org/2000/svg" width="300" height="3600" viewBox="0 0 300 3600"><svg width="300" height="300" viewBox="0 -20 512 512" id="chat" y="0"><path d="M256 0C120.55 0 0 92.375 0 217.988c0 45.88 16.29 89.32 47.234 126.29L20.641 446.96c-3.946 15.226 10.523 28.934 25.566 24.023l135.672-44.28c23.969 6.155 48.871 9.273 74.121 9.273 135.535 0 256-92.465 256-217.989C512 91.391 390.242 0 256 0zm0 395.977c-23.703 0-47.02-3.16-69.293-9.387a20.04 20.04 0 0 0-11.594.246L68.52 421.629l20.093-77.578a19.997 19.997 0 0 0-4.66-18.57C55.2 294.304 40 257.132 40 217.987c0-98.144 96.898-177.992 216-177.992s216 79.848 216 177.992-96.898 177.989-216 177.989zm25-177.993c0 13.809-11.191 25-25 25s-25-11.191-25-25c0-13.804 11.191-25 25-25s25 11.196 25 25zm100 0c0 13.809-11.191 25-25 25s-25-11.191-25-25c0-13.804 11.191-25 25-25s25 11.196 25 25zm-200 0c0 13.809-11.191 25-25 25s-25-11.191-25-25c0-13.804 11.191-25 25-25s25 11.196 25 25zm0 0"/></svg><svg width="300" height="300" viewBox="0 0 512 512" id="download" y="300"><path d="M512 416v76c0 11.047-8.953 20-20 20H20c-11.047 0-20-8.953-20-20v-76c0-11.047 8.953-20 20-20s20 8.953 20 20v56h432v-56c0-11.047 8.953-20 20-20s20 8.953 20 20zm-270.145 14.14c7.692 7.696 20.418 7.872 28.29 0l113.132-113.136c7.813-7.809 7.813-20.473 0-28.281-7.808-7.813-20.472-7.813-28.28 0L276 367.715V20c0-11.047-8.953-20-20-20s-20 8.953-20 20v347.715l-78.996-78.992c-7.809-7.813-20.473-7.813-28.281 0-7.813 7.808-7.813 20.472 0 28.28zm0 0"/></svg><svg width="300" height="300" viewBox="0 0 512 512" id="edit" y="600"><path d="M474.941 37.723C425.04-12.48 344.078-12.504 294.105 37.23c-.07.07-.148.13-.214.2-.055.05-.102.113-.153.164L25.871 305.332a20.004 20.004 0 0 0-5.726 11.84L.137 489.692c-1.48 12.757 9.332 23.671 22.187 22.167l171.551-20a19.997 19.997 0 0 0 11.805-5.699l.367-.367c.066-.066.137-.117.203-.184.059-.058.11-.129.172-.187L474.504 218.23c49.824-49.644 50.02-130.62.437-180.507zM308.04 79.859l47.98 47.973-239.664 239.621-48.015-48.012zM42.785 469.207L55.13 362.801c10.738 10.738 83.43 83.418 94.02 94.004zm149.332-26.008l-47.469-47.465 239.66-239.617 47.852 47.84zm266.715-269.14L337.957 53.203c33.246-20.723 78.637-17.437 108.605 12.715 29.184 29.36 33.239 74.394 12.27 108.14zm0 0"/></svg><svg width="300" height="300" viewBox="0 -76 512 512" id="envelope" y="900"><path d="M492.05.004c-.015 0-.034-.004-.05-.004H20c-.016 0-.031.004-.05.004C8.73.027 0 9.242 0 20v320c0 11.055 8.98 19.996 19.988 20h472.024c11.136-.004 19.988-9.145 19.988-20V20C512 9.152 503.152.031 492.05.004zM443.372 40L256 225.5 68.629 40zM40 67.941L153.187 180 40 292.059zM68.629 320l112.984-111.855 60.317 59.71c7.793 7.715 20.347 7.715 28.14 0l60.317-59.71L443.37 320zM472 292.059L358.812 180 472 67.941zm0 0"/></svg><svg width="300" height="300" viewBox="-18 0 511 512" id="garbage" y="1200"><path d="M454.5 76h-117V20c0-11.047-8.953-20-20-20h-160c-11.047 0-20 8.953-20 20v56h-117C9.453 76 .5 84.953.5 96s8.953 20 20 20h37v376c0 11.047 8.953 20 20 20h320c11.047 0 20-8.953 20-20V116h37c11.047 0 20-8.953 20-20s-8.953-20-20-20zm-277-36h120v36h-120zm200 432h-280V116h280zM204.168 172v244c0 11.047-8.953 20-20 20s-20-8.953-20-20V172c0-11.047 8.953-20 20-20s20 8.953 20 20zm106.664 0v244c0 11.047-8.953 20-20 20s-20-8.953-20-20V172c0-11.047 8.953-20 20-20s20 8.953 20 20zm0 0"/></svg><svg width="300" height="300" viewBox="0 0 512 512" id="house" y="1500"><path d="M503.223 163.445a8976720.686 8976720.686 0 0 1-236-160 20 20 0 0 0-22.446 0 6329013.45 6329013.45 0 0 1-236 160c-9.14 6.2-11.527 18.637-5.328 27.778 6.2 9.144 18.633 11.53 27.778 5.332L57 179.078V492c0 11.047 8.957 20 20 20h113.5c11.047 0 20-8.953 20-20V352h91v140c0 11.047 8.953 20 20 20H435c11.043 0 20-8.953 20-20V179.078l25.777 17.477c9.188 6.23 21.61 3.761 27.778-5.332 6.195-9.141 3.808-21.578-5.332-27.778zM415 472h-73.5V332c0-11.047-8.953-20-20-20h-131c-11.047 0-20 8.953-20 20v140H97V151.96L256 44.165l159 107.797zm0 0"/></svg><svg width="300" height="300" viewBox="0 0 512 512" id="magnifying-glass" y="1800"><path d="M506.14 477.86L385.646 357.362C418.242 318.285 436 269.512 436 218 436 97.52 338.5 0 218 0 97.52 0 0 97.5 0 218c0 120.48 97.5 218 218 218 51.512 0 100.285-17.758 139.363-50.355L477.86 506.14c7.809 7.812 20.473 7.812 28.282 0 7.812-7.809 7.812-20.473 0-28.282zM218 396c-98.148 0-178-79.852-178-178S119.852 40 218 40s178 79.852 178 178-79.852 178-178 178zm0 0"/></svg><svg width="300" height="300" viewBox="0 -54 512 512" id="photo-camera" y="2100"><path d="M492 72H377.02L337.406 9.316A19.996 19.996 0 0 0 320.5 0h-129a19.996 19.996 0 0 0-16.906 9.316L134.98 72H20C8.953 72 0 80.953 0 92v254c0 11.047 8.953 20 20 20h140.93c25.523 24.246 59.68 38 95.07 38 35.395 0 69.55-13.758 95.07-38H492c11.047 0 20-8.953 20-20V92c0-11.047-8.953-20-20-20zM202.52 40h106.96l20.223 32H182.297zM256 364c-53.46 0-98-43.293-98-98 0-54.035 43.96-98 98-98s98 43.965 98 98c0 54.746-44.582 98-98 98zm216-38h-91.71c8.96-18.531 13.71-38.98 13.71-60 0-76.094-61.906-138-138-138s-138 61.906-138 138c0 21.02 4.75 41.469 13.707 60H40V112h432zm0 0"/></svg><svg width="300" height="300" viewBox="-76 0 512 512" id="placeholder" y="2400"><path d="M180 0C80.75 0 0 78.996 0 176.098c0 130.007 83.355 262.566 167.324 331.375a20.002 20.002 0 0 0 25.352 0C252.19 458.703 360 329.62 360 176.098 360 78.996 279.254 0 180 0zm.008 465.094C143.378 430.32 40 319.46 40 176.098 40 101.055 102.805 40 180 40s140 61.055 140 136.098c0 109.742-62.46 215.515-139.992 288.996zM180 84.438c-52.773 0-95.707 42.933-95.707 95.707 0 52.773 42.934 95.71 95.707 95.71s95.707-42.937 95.707-95.71c0-52.774-42.934-95.708-95.707-95.708zm0 151.417c-30.719 0-55.707-24.992-55.707-55.71 0-30.715 24.988-55.708 55.707-55.708s55.707 24.993 55.707 55.708c0 30.718-24.988 55.71-55.707 55.71zm0 0"/></svg><svg width="300" height="300" viewBox="0 0 512 512" id="printer" y="2700"><path d="M492 76h-81V20c0-11.047-8.953-20-20-20H121c-11.047 0-20 8.953-20 20v56H20C8.953 76 0 84.953 0 96v320c0 11.047 8.953 20 20 20h81v56c0 11.047 8.953 20 20 20h270c11.047 0 20-8.953 20-20v-56h81c11.047 0 20-8.953 20-20V96c0-11.047-8.953-20-20-20zM141 40h230v36H141zm230 432H141V360h230zm101-76h-61v-36h19c11.047 0 20-8.953 20-20s-8.953-20-20-20H82c-11.047 0-20 8.953-20 20s8.953 20 20 20h19v36H40V116h432zM340 152h76c11.047 0 20 8.953 20 20s-8.953 20-20 20h-76c-11.047 0-20-8.953-20-20s8.953-20 20-20zM164.5 416c0-11.047 8.953-20 20-20h143c11.047 0 20 8.953 20 20s-8.953 20-20 20h-143c-11.047 0-20-8.953-20-20zm0 0"/></svg><svg width="300" height="300" viewBox="0 0 512 512" id="share" y="3000"><path d="M412 312c-31.723 0-60.04 14.852-78.375 37.965l-136.98-68.266C198.828 273.496 200 264.883 200 256s-1.172-17.496-3.355-25.7l136.98-68.265C351.961 185.148 380.277 200 412 200c55.14 0 100-44.86 100-100S467.14 0 412 0 312 44.86 312 100c0 9.121 1.234 17.96 3.531 26.363L178.801 194.5C160.48 171.082 131.969 156 100 156 44.86 156 0 200.86 0 256s44.86 100 100 100c31.969 0 60.48-15.082 78.8-38.5l136.731 68.137A99.856 99.856 0 0 0 312 412c0 55.14 44.86 100 100 100s100-44.86 100-100-44.86-100-100-100zm0-272c33.086 0 60 26.914 60 60s-26.914 60-60 60-60-26.914-60-60 26.914-60 60-60zM100 316c-33.086 0-60-26.914-60-60s26.914-60 60-60 60 26.914 60 60-26.914 60-60 60zm312 156c-33.086 0-60-26.914-60-60s26.914-60 60-60 60 26.914 60 60-26.914 60-60 60zm0 0"/></svg><svg width="300" height="300" viewBox="0 0 512 512" id="shopping-cart" y="3300"><path d="M492 392.637H119.367v-27.133h314.156c11.047 0 20-8.957 20-20V178.426a20.001 20.001 0 0 0-15.394-19.465L119.367 83.547v-24.18a20 20 0 0 0-11.113-17.914L28.89 2.09c-9.899-4.914-21.899-.867-26.805 9.027-4.906 9.895-.863 21.899 9.031 26.805l68.25 33.851v340.864c0 11.047 8.953 20 20 20h42.738a59.437 59.437 0 0 0-3.351 19.683c0 32.907 26.773 59.68 59.68 59.68 32.91 0 59.683-26.773 59.683-59.68a59.437 59.437 0 0 0-3.351-19.683h102.718a59.437 59.437 0 0 0-3.351 19.683c0 32.907 26.773 59.68 59.683 59.68 32.907 0 59.68-26.773 59.68-59.68a59.437 59.437 0 0 0-3.351-19.683H492c11.047 0 20-8.953 20-20 0-11.043-8.953-20-20-20zM119.367 124.652l294.156 69.594v131.258H119.367zM198.434 472c-10.852 0-19.68-8.828-19.68-19.68 0-10.851 8.828-19.683 19.68-19.683 10.855 0 19.683 8.832 19.683 19.683 0 10.852-8.828 19.68-19.683 19.68zm215.382 0c-10.855 0-19.683-8.828-19.683-19.68 0-10.851 8.828-19.683 19.683-19.683 10.852 0 19.68 8.832 19.68 19.683 0 10.852-8.828 19.68-19.68 19.68zm0 0"/></svg></svg>
